<mxfile host="app.diagrams.net" agent="Mozilla/5.0 (Windows NT 10.0; Win64; x64) AppleWebKit/537.36 (KHTML, like Gecko) Chrome/139.0.0.0 Safari/537.36 Edg/139.0.0.0" version="27.1.4">
  <diagram id="0" name="Page-1">
    <mxGraphModel dx="2985" dy="750" grid="1" gridSize="10" guides="1" tooltips="1" connect="1" arrows="1" fold="1" page="1" pageScale="1" pageWidth="827" pageHeight="1169" math="0" shadow="0">
      <root>
        <mxCell id="0" />
        <mxCell id="1" parent="0" />
        <mxCell id="3KhVxmC615AnR605HJwy-149" value="" style="group" vertex="1" connectable="0" parent="1">
          <mxGeometry x="-1640" y="320" width="456" height="145" as="geometry" />
        </mxCell>
        <mxCell id="3KhVxmC615AnR605HJwy-1" value="" style="rounded=1;whiteSpace=wrap;html=1;align=center;verticalAlign=middle;fontFamily=Helvetica;fontSize=12;container=0;" vertex="1" parent="3KhVxmC615AnR605HJwy-149">
          <mxGeometry x="16.113074204946997" y="4.2013988256723165" width="174.02120141342755" height="134.44476242151413" as="geometry" />
        </mxCell>
        <mxCell id="3KhVxmC615AnR605HJwy-12" value="&lt;b style=&quot;&quot;&gt;&lt;font&gt;Interference Model&lt;/font&gt;&lt;/b&gt;" style="rounded=0;whiteSpace=wrap;html=1;strokeColor=none;align=center;verticalAlign=middle;fontFamily=Helvetica;fontSize=12;fontColor=default;fillColor=none;container=0;" vertex="1" parent="3KhVxmC615AnR605HJwy-149">
          <mxGeometry y="4.2013988256723165" width="195.773851590106" height="16.59552536140565" as="geometry" />
        </mxCell>
        <mxCell id="3KhVxmC615AnR605HJwy-14" value="" style="endArrow=classic;html=1;rounded=0;fontFamily=Helvetica;fontSize=12;fontColor=default;strokeWidth=2;" edge="1" parent="3KhVxmC615AnR605HJwy-149">
          <mxGeometry width="50" height="50" relative="1" as="geometry">
            <mxPoint x="190.13427561837455" y="70.27259675819487" as="sourcePoint" />
            <mxPoint x="214.1024734982332" y="70.69273664076229" as="targetPoint" />
          </mxGeometry>
        </mxCell>
        <mxCell id="3KhVxmC615AnR605HJwy-83" value="&lt;span style=&quot;text-wrap-mode: nowrap;&quot;&gt;&lt;font&gt;Schedule&lt;br&gt;&amp;amp;&lt;br&gt;Preempt&lt;/font&gt;&lt;/span&gt;" style="text;html=1;align=center;verticalAlign=middle;whiteSpace=wrap;rounded=0;container=0;" vertex="1" parent="3KhVxmC615AnR605HJwy-149">
          <mxGeometry x="319.0388692579505" y="35.80432079237949" width="48.339222614840985" height="25.208392954033897" as="geometry" />
        </mxCell>
        <mxCell id="3KhVxmC615AnR605HJwy-17" value="" style="rounded=1;whiteSpace=wrap;html=1;strokeColor=default;align=center;verticalAlign=middle;fontFamily=Helvetica;fontSize=12;fontColor=default;fillColor=none;dashed=1;dashPattern=8 8;container=0;" vertex="1" parent="3KhVxmC615AnR605HJwy-149">
          <mxGeometry x="214.4247349823322" y="12.192459392101053" width="104.61413427561837" height="92.84251124970683" as="geometry" />
        </mxCell>
        <mxCell id="3KhVxmC615AnR605HJwy-18" value="&lt;b style=&quot;&quot;&gt;&lt;font&gt;Cluster-level Queue&lt;/font&gt;&lt;/b&gt;" style="rounded=0;whiteSpace=wrap;html=1;strokeColor=none;align=center;verticalAlign=middle;fontFamily=Helvetica;fontSize=12;fontColor=default;fillColor=none;container=0;" vertex="1" parent="3KhVxmC615AnR605HJwy-149">
          <mxGeometry x="198.18735991923268" y="2.9551771702068175" width="136.55830388692578" height="42.40637936565107" as="geometry" />
        </mxCell>
        <mxCell id="3KhVxmC615AnR605HJwy-20" value="" style="rounded=1;whiteSpace=wrap;html=1;fillColor=#d5e8d4;strokeColor=#82b366;strokeWidth=3;container=0;" vertex="1" parent="3KhVxmC615AnR605HJwy-149">
          <mxGeometry x="225.26653205451794" y="42.067659856530796" width="16.256940938919737" height="18.94652622442932" as="geometry" />
        </mxCell>
        <mxCell id="3KhVxmC615AnR605HJwy-21" value="" style="rounded=1;whiteSpace=wrap;html=1;fillColor=#d5e8d4;strokeColor=#82b366;strokeWidth=3;container=0;" vertex="1" parent="3KhVxmC615AnR605HJwy-149">
          <mxGeometry x="251.27763755678947" y="42.067659856530796" width="16.256940938919737" height="18.94652622442932" as="geometry" />
        </mxCell>
        <mxCell id="3KhVxmC615AnR605HJwy-22" value="" style="rounded=1;whiteSpace=wrap;html=1;fillColor=#d5e8d4;strokeColor=#82b366;strokeWidth=3;container=0;" vertex="1" parent="3KhVxmC615AnR605HJwy-149">
          <mxGeometry x="277.1261736496718" y="42.067659856530796" width="16.256940938919737" height="18.94652622442932" as="geometry" />
        </mxCell>
        <mxCell id="3KhVxmC615AnR605HJwy-24" value="&lt;font&gt;High priority&lt;/font&gt;" style="text;whiteSpace=wrap;html=1;fontFamily=Helvetica;fontSize=12;fontColor=default;align=center;container=0;" vertex="1" parent="3KhVxmC615AnR605HJwy-149">
          <mxGeometry x="205.51158001009583" y="104.16792380176886" width="58.52498738011105" height="28.268217126848544" as="geometry" />
        </mxCell>
        <mxCell id="3KhVxmC615AnR605HJwy-25" value="&lt;font&gt;Low&amp;nbsp;&lt;/font&gt;&lt;div&gt;&lt;font&gt;Priority&lt;/font&gt;&lt;/div&gt;" style="text;whiteSpace=wrap;html=1;fontFamily=Helvetica;fontSize=12;fontColor=default;align=center;container=0;" vertex="1" parent="3KhVxmC615AnR605HJwy-149">
          <mxGeometry x="264.20732963149925" y="103.7317828731515" width="65.02776375567895" height="28.268217126848544" as="geometry" />
        </mxCell>
        <mxCell id="3KhVxmC615AnR605HJwy-26" value="" style="rounded=1;whiteSpace=wrap;html=1;fillColor=#fff2cc;strokeColor=#d6b656;strokeWidth=3;container=0;" vertex="1" parent="3KhVxmC615AnR605HJwy-149">
          <mxGeometry x="277.1261736496718" y="75.69591869349206" width="16.256940938919737" height="18.94652622442932" as="geometry" />
        </mxCell>
        <mxCell id="3KhVxmC615AnR605HJwy-27" value="" style="rounded=1;whiteSpace=wrap;html=1;fillColor=#fff2cc;strokeColor=#d6b656;strokeWidth=3;container=0;" vertex="1" parent="3KhVxmC615AnR605HJwy-149">
          <mxGeometry x="251.27763755678947" y="75.69591869349206" width="16.256940938919737" height="18.94652622442932" as="geometry" />
        </mxCell>
        <mxCell id="3KhVxmC615AnR605HJwy-28" value="" style="rounded=1;whiteSpace=wrap;html=1;fillColor=#fff2cc;strokeColor=#d6b656;strokeWidth=3;container=0;" vertex="1" parent="3KhVxmC615AnR605HJwy-149">
          <mxGeometry x="225.26653205451794" y="75.69591869349206" width="16.256940938919737" height="18.94652622442932" as="geometry" />
        </mxCell>
        <mxCell id="3KhVxmC615AnR605HJwy-36" value="" style="endArrow=classic;html=1;rounded=0;fontFamily=Helvetica;fontSize=12;fontColor=default;strokeWidth=1.5;" edge="1" parent="3KhVxmC615AnR605HJwy-149">
          <mxGeometry width="50" height="50" relative="1" as="geometry">
            <mxPoint x="319.0388692579505" y="71.5666275965022" as="sourcePoint" />
            <mxPoint x="367.3780918727915" y="71.5666275965022" as="targetPoint" />
          </mxGeometry>
        </mxCell>
        <mxCell id="3KhVxmC615AnR605HJwy-126" value="" style="sketch=0;pointerEvents=1;shadow=0;dashed=0;html=1;strokeColor=none;fillColor=#434445;aspect=fixed;labelPosition=center;verticalLabelPosition=bottom;verticalAlign=top;align=center;outlineConnect=0;shape=mxgraph.vvd.cpu;rounded=1;fontFamily=Helvetica;fontSize=12;fontColor=default;container=0;" vertex="1" parent="3KhVxmC615AnR605HJwy-149">
          <mxGeometry x="66.87188728063045" y="39.69912024068596" width="27.70826093491855" height="27.70826093491855" as="geometry" />
        </mxCell>
        <mxCell id="3KhVxmC615AnR605HJwy-127" value="&lt;font&gt;&lt;b style=&quot;&quot;&gt;Single&lt;/b&gt;&lt;/font&gt;" style="text;html=1;align=center;verticalAlign=middle;resizable=0;points=[];autosize=1;strokeColor=none;fillColor=none;fontFamily=Helvetica;fontSize=12;fontColor=default;container=0;" vertex="1" parent="3KhVxmC615AnR605HJwy-149">
          <mxGeometry x="13.408799917205164" y="21.00699412836158" width="60" height="30" as="geometry" />
        </mxCell>
        <mxCell id="3KhVxmC615AnR605HJwy-128" value="" style="sketch=0;pointerEvents=1;shadow=0;dashed=0;html=1;strokeColor=none;fillColor=#434445;aspect=fixed;labelPosition=center;verticalLabelPosition=bottom;verticalAlign=top;align=center;outlineConnect=0;shape=mxgraph.vvd.cpu;rounded=1;fontFamily=Helvetica;fontSize=12;fontColor=default;container=0;" vertex="1" parent="3KhVxmC615AnR605HJwy-149">
          <mxGeometry x="66.25153392374" y="97.2604902923206" width="27.70826093491855" height="27.70826093491855" as="geometry" />
        </mxCell>
        <mxCell id="3KhVxmC615AnR605HJwy-129" value="&lt;font&gt;&lt;b style=&quot;&quot;&gt;Colocate&lt;/b&gt;&lt;/font&gt;" style="text;html=1;align=center;verticalAlign=middle;resizable=0;points=[];autosize=1;strokeColor=none;fillColor=none;fontFamily=Helvetica;fontSize=12;fontColor=default;container=0;" vertex="1" parent="3KhVxmC615AnR605HJwy-149">
          <mxGeometry x="13.056537102473499" y="62.16664388514109" width="70" height="30" as="geometry" />
        </mxCell>
        <mxCell id="3KhVxmC615AnR605HJwy-130" value="" style="edgeStyle=orthogonalEdgeStyle;rounded=0;orthogonalLoop=1;jettySize=auto;html=1;" edge="1" parent="3KhVxmC615AnR605HJwy-149" source="3KhVxmC615AnR605HJwy-131" target="3KhVxmC615AnR605HJwy-132">
          <mxGeometry relative="1" as="geometry" />
        </mxCell>
        <mxCell id="3KhVxmC615AnR605HJwy-131" value="&lt;b style=&quot;&quot;&gt;&lt;font&gt;Interference Model&lt;/font&gt;&lt;/b&gt;" style="rounded=0;whiteSpace=wrap;html=1;strokeColor=#9673a6;align=center;verticalAlign=middle;fontFamily=Helvetica;fontSize=12;fillColor=#e1d5e7;container=0;" vertex="1" parent="3KhVxmC615AnR605HJwy-149">
          <mxGeometry x="112.50148409894" y="40.14856717812463" width="72.79886925795053" height="28.451872847452925" as="geometry" />
        </mxCell>
        <mxCell id="3KhVxmC615AnR605HJwy-132" value="&lt;font&gt;&lt;b style=&quot;&quot;&gt;Decay&lt;/b&gt;&lt;/font&gt;" style="rounded=1;whiteSpace=wrap;html=1;fillColor=#f8cecc;strokeColor=#b85450;container=0;" vertex="1" parent="3KhVxmC615AnR605HJwy-149">
          <mxGeometry x="121.07347102917028" y="107.26358291258512" width="55.65752472758992" height="18.896021024703316" as="geometry" />
        </mxCell>
        <mxCell id="3KhVxmC615AnR605HJwy-133" value="" style="endArrow=classic;html=1;rounded=0;" edge="1" parent="3KhVxmC615AnR605HJwy-149">
          <mxGeometry width="50" height="50" relative="1" as="geometry">
            <mxPoint x="52.23602466105822" y="55.43142847039535" as="sourcePoint" />
            <mxPoint x="66.32653725032154" y="55.43142847039535" as="targetPoint" />
          </mxGeometry>
        </mxCell>
        <mxCell id="3KhVxmC615AnR605HJwy-134" value="" style="endArrow=classic;html=1;rounded=0;" edge="1" parent="3KhVxmC615AnR605HJwy-149">
          <mxGeometry width="50" height="50" relative="1" as="geometry">
            <mxPoint x="97.02565164037442" y="54.49922620843151" as="sourcePoint" />
            <mxPoint x="111.11616422963755" y="54.49922620843151" as="targetPoint" />
          </mxGeometry>
        </mxCell>
        <mxCell id="3KhVxmC615AnR605HJwy-135" value="" style="endArrow=classic;html=1;rounded=0;" edge="1" parent="3KhVxmC615AnR605HJwy-149">
          <mxGeometry width="50" height="50" relative="1" as="geometry">
            <mxPoint x="52.59135502757366" y="109.70679636301885" as="sourcePoint" />
            <mxPoint x="66.68186761683698" y="109.70679636301885" as="targetPoint" />
          </mxGeometry>
        </mxCell>
        <mxCell id="3KhVxmC615AnR605HJwy-136" value="" style="rounded=1;whiteSpace=wrap;html=1;fillColor=#d5e8d4;strokeColor=#82b366;strokeWidth=3;container=0;" vertex="1" parent="3KhVxmC615AnR605HJwy-149">
          <mxGeometry x="28.855127637792748" y="45.35830172195834" width="15.510716290743368" height="16.805595302689266" as="geometry" />
        </mxCell>
        <mxCell id="3KhVxmC615AnR605HJwy-142" value="" style="edgeStyle=segmentEdgeStyle;endArrow=classic;html=1;curved=0;rounded=0;endSize=8;startSize=8;" edge="1" parent="3KhVxmC615AnR605HJwy-149">
          <mxGeometry width="50" height="50" relative="1" as="geometry">
            <mxPoint x="93.96339222614849" y="110.61442828230064" as="sourcePoint" />
            <mxPoint x="112.79151943462897" y="72.26405980156383" as="targetPoint" />
          </mxGeometry>
        </mxCell>
        <mxCell id="3KhVxmC615AnR605HJwy-138" value="" style="rounded=1;whiteSpace=wrap;html=1;fillColor=#f5f5f5;strokeColor=#666666;fontColor=#333333;container=0;" vertex="1" parent="3KhVxmC615AnR605HJwy-149">
          <mxGeometry x="25.173846858967856" y="82.37229012937831" width="24.169611307420492" height="53.77790496860565" as="geometry" />
        </mxCell>
        <mxCell id="3KhVxmC615AnR605HJwy-139" value="&lt;font style=&quot;font-size: 16px;&quot;&gt;&lt;b&gt;...&lt;/b&gt;&lt;/font&gt;" style="text;html=1;align=center;verticalAlign=middle;whiteSpace=wrap;rounded=0;container=0;" vertex="1" parent="3KhVxmC615AnR605HJwy-149">
          <mxGeometry x="16.11277082070469" y="94.2800385127703" width="42.271537767789816" height="22.450718049152457" as="geometry" />
        </mxCell>
        <mxCell id="3KhVxmC615AnR605HJwy-140" value="" style="rounded=1;whiteSpace=wrap;html=1;fillColor=#fff2cc;strokeColor=#d6b656;strokeWidth=3;container=0;" vertex="1" parent="3KhVxmC615AnR605HJwy-149">
          <mxGeometry x="29.53918034411038" y="87.37228997868151" width="15.510716290743368" height="16.805595302689266" as="geometry" />
        </mxCell>
        <mxCell id="3KhVxmC615AnR605HJwy-141" value="" style="rounded=1;whiteSpace=wrap;html=1;fillColor=#fff2cc;strokeColor=#d6b656;strokeWidth=3;container=0;" vertex="1" parent="3KhVxmC615AnR605HJwy-149">
          <mxGeometry x="29.466671510188185" y="114.16881168881962" width="15.510716290743368" height="16.805595302689266" as="geometry" />
        </mxCell>
        <mxCell id="3KhVxmC615AnR605HJwy-144" value="" style="endArrow=none;dashed=1;html=1;rounded=0;strokeWidth=2;" edge="1" parent="3KhVxmC615AnR605HJwy-149">
          <mxGeometry width="50" height="50" relative="1" as="geometry">
            <mxPoint x="221.46614840989406" y="68.76009318095316" as="sourcePoint" />
            <mxPoint x="318.14459363957604" y="68.76009318095316" as="targetPoint" />
          </mxGeometry>
        </mxCell>
        <mxCell id="3KhVxmC615AnR605HJwy-146" value="" style="group" vertex="1" connectable="0" parent="3KhVxmC615AnR605HJwy-149">
          <mxGeometry x="359.321554770318" y="5" width="96.67844522968197" height="117.63916711882486" as="geometry" />
        </mxCell>
        <mxCell id="3KhVxmC615AnR605HJwy-48" value="&lt;div&gt;&lt;br&gt;&lt;/div&gt;&lt;div&gt;&lt;br&gt;&lt;/div&gt;&lt;div&gt;&lt;br&gt;&lt;/div&gt;&lt;div&gt;&lt;br&gt;&lt;/div&gt;&lt;div&gt;&lt;br&gt;&lt;/div&gt;&lt;div&gt;&lt;br&gt;&lt;/div&gt;&lt;div&gt;&lt;br&gt;&lt;/div&gt;&lt;div&gt;&lt;br&gt;&lt;/div&gt;" style="rounded=1;whiteSpace=wrap;html=1;align=center;verticalAlign=middle;fontFamily=Helvetica;fontSize=12;container=0;" vertex="1" parent="3KhVxmC615AnR605HJwy-146">
          <mxGeometry x="4.603735487127707" y="4.992304154117735" width="92.07470974255426" height="112.64686296470715" as="geometry" />
        </mxCell>
        <mxCell id="3KhVxmC615AnR605HJwy-49" value="&lt;b style=&quot;&quot;&gt;&lt;font&gt;Cluster&lt;/font&gt;&lt;/b&gt;" style="rounded=0;whiteSpace=wrap;html=1;strokeColor=none;align=center;verticalAlign=middle;fontFamily=Helvetica;fontSize=12;fontColor=default;fillColor=none;container=0;" vertex="1" parent="3KhVxmC615AnR605HJwy-146">
          <mxGeometry width="96.67844522968197" height="20.481247811764938" as="geometry" />
        </mxCell>
        <mxCell id="3KhVxmC615AnR605HJwy-52" value="" style="rounded=1;whiteSpace=wrap;html=1;fillColor=#dae8fc;strokeColor=#6c8ebf;container=0;" vertex="1" parent="3KhVxmC615AnR605HJwy-146">
          <mxGeometry x="11.96971226653205" y="21.20235841180414" width="36.305696193041804" height="40.96873990639932" as="geometry" />
        </mxCell>
        <mxCell id="3KhVxmC615AnR605HJwy-54" value="" style="sketch=0;pointerEvents=1;shadow=0;dashed=0;html=1;strokeColor=none;fillColor=#434445;aspect=fixed;labelPosition=center;verticalLabelPosition=bottom;verticalAlign=top;align=center;outlineConnect=0;shape=mxgraph.vvd.cpu;rounded=1;fontFamily=Helvetica;fontSize=12;fontColor=default;container=0;" vertex="1" parent="3KhVxmC615AnR605HJwy-146">
          <mxGeometry x="30.122560363052955" y="23.478399517715182" width="14.748777561192174" height="14.748777561192174" as="geometry" />
        </mxCell>
        <mxCell id="3KhVxmC615AnR605HJwy-55" value="" style="sketch=0;pointerEvents=1;shadow=0;dashed=0;html=1;strokeColor=none;fillColor=#434445;aspect=fixed;labelPosition=center;verticalLabelPosition=bottom;verticalAlign=top;align=center;outlineConnect=0;shape=mxgraph.vvd.cpu;rounded=1;fontFamily=Helvetica;fontSize=12;fontColor=default;container=0;" vertex="1" parent="3KhVxmC615AnR605HJwy-146">
          <mxGeometry x="13.98669538836771" y="23.478399517715182" width="14.748777561192174" height="14.748777561192174" as="geometry" />
        </mxCell>
        <mxCell id="3KhVxmC615AnR605HJwy-56" value="" style="sketch=0;pointerEvents=1;shadow=0;dashed=0;html=1;strokeColor=none;fillColor=#434445;aspect=fixed;labelPosition=center;verticalLabelPosition=bottom;verticalAlign=top;align=center;outlineConnect=0;shape=mxgraph.vvd.cpu;rounded=1;fontFamily=Helvetica;fontSize=12;fontColor=default;container=0;" vertex="1" parent="3KhVxmC615AnR605HJwy-146">
          <mxGeometry x="30.122560363052955" y="41.68672836500379" width="14.748777561192174" height="14.748777561192174" as="geometry" />
        </mxCell>
        <mxCell id="3KhVxmC615AnR605HJwy-57" value="" style="sketch=0;pointerEvents=1;shadow=0;dashed=0;html=1;strokeColor=none;fillColor=#434445;aspect=fixed;labelPosition=center;verticalLabelPosition=bottom;verticalAlign=top;align=center;outlineConnect=0;shape=mxgraph.vvd.cpu;rounded=1;fontFamily=Helvetica;fontSize=12;fontColor=default;container=0;" vertex="1" parent="3KhVxmC615AnR605HJwy-146">
          <mxGeometry x="13.98669538836771" y="41.68672836500379" width="14.748777561192174" height="14.748777561192174" as="geometry" />
        </mxCell>
        <mxCell id="3KhVxmC615AnR605HJwy-58" value="" style="rounded=1;whiteSpace=wrap;html=1;fillColor=#fff2cc;strokeColor=#d6b656;strokeWidth=3;container=0;" vertex="1" parent="3KhVxmC615AnR605HJwy-146">
          <mxGeometry x="18.020661632039037" y="46.23881057682594" width="24.203797462027865" height="9.104164423644294" as="geometry" />
        </mxCell>
        <mxCell id="3KhVxmC615AnR605HJwy-59" value="" style="rounded=1;whiteSpace=wrap;html=1;fillColor=#d5e8d4;strokeColor=#82b366;strokeWidth=3;container=0;" vertex="1" parent="3KhVxmC615AnR605HJwy-146">
          <mxGeometry x="17.012170071121204" y="26.892461176581776" width="10.084915609178278" height="11.380205529555369" as="geometry" />
        </mxCell>
        <mxCell id="3KhVxmC615AnR605HJwy-60" value="" style="rounded=1;whiteSpace=wrap;html=1;fillColor=#d5e8d4;strokeColor=#82b366;strokeWidth=3;container=0;" vertex="1" parent="3KhVxmC615AnR605HJwy-146">
          <mxGeometry x="33.148035045806445" y="26.892461176581776" width="10.084915609178278" height="11.380205529555369" as="geometry" />
        </mxCell>
        <mxCell id="3KhVxmC615AnR605HJwy-62" value="" style="rounded=1;whiteSpace=wrap;html=1;fillColor=#dae8fc;strokeColor=#6c8ebf;container=0;" vertex="1" parent="3KhVxmC615AnR605HJwy-146">
          <mxGeometry x="54.962220300778164" y="21.20235841180414" width="36.305696193041804" height="40.96873990639932" as="geometry" />
        </mxCell>
        <mxCell id="3KhVxmC615AnR605HJwy-64" value="" style="sketch=0;pointerEvents=1;shadow=0;dashed=0;html=1;strokeColor=none;fillColor=#434445;aspect=fixed;labelPosition=center;verticalLabelPosition=bottom;verticalAlign=top;align=center;outlineConnect=0;shape=mxgraph.vvd.cpu;rounded=1;fontFamily=Helvetica;fontSize=12;fontColor=default;container=0;" vertex="1" parent="3KhVxmC615AnR605HJwy-146">
          <mxGeometry x="73.11506839729905" y="23.478399517715253" width="14.748777561192178" height="14.748777561192178" as="geometry" />
        </mxCell>
        <mxCell id="3KhVxmC615AnR605HJwy-65" value="" style="sketch=0;pointerEvents=1;shadow=0;dashed=0;html=1;strokeColor=none;fillColor=#434445;aspect=fixed;labelPosition=center;verticalLabelPosition=bottom;verticalAlign=top;align=center;outlineConnect=0;shape=mxgraph.vvd.cpu;rounded=1;fontFamily=Helvetica;fontSize=12;fontColor=default;container=0;" vertex="1" parent="3KhVxmC615AnR605HJwy-146">
          <mxGeometry x="56.97920342261382" y="23.478399517715253" width="14.748777561192178" height="14.748777561192178" as="geometry" />
        </mxCell>
        <mxCell id="3KhVxmC615AnR605HJwy-66" value="" style="sketch=0;pointerEvents=1;shadow=0;dashed=0;html=1;strokeColor=none;fillColor=#434445;aspect=fixed;labelPosition=center;verticalLabelPosition=bottom;verticalAlign=top;align=center;outlineConnect=0;shape=mxgraph.vvd.cpu;rounded=1;fontFamily=Helvetica;fontSize=12;fontColor=default;container=0;" vertex="1" parent="3KhVxmC615AnR605HJwy-146">
          <mxGeometry x="73.11506839729905" y="41.68672836500386" width="14.748777561192178" height="14.748777561192178" as="geometry" />
        </mxCell>
        <mxCell id="3KhVxmC615AnR605HJwy-67" value="" style="sketch=0;pointerEvents=1;shadow=0;dashed=0;html=1;strokeColor=none;fillColor=#434445;aspect=fixed;labelPosition=center;verticalLabelPosition=bottom;verticalAlign=top;align=center;outlineConnect=0;shape=mxgraph.vvd.cpu;rounded=1;fontFamily=Helvetica;fontSize=12;fontColor=default;container=0;" vertex="1" parent="3KhVxmC615AnR605HJwy-146">
          <mxGeometry x="56.97920342261382" y="41.68672836500386" width="14.748777561192178" height="14.748777561192178" as="geometry" />
        </mxCell>
        <mxCell id="3KhVxmC615AnR605HJwy-68" value="" style="rounded=1;whiteSpace=wrap;html=1;fillColor=#fff2cc;strokeColor=#d6b656;strokeWidth=3;container=0;" vertex="1" parent="3KhVxmC615AnR605HJwy-146">
          <mxGeometry x="61.013169666285194" y="28.030481729537403" width="24.203797462027868" height="9.104164423644294" as="geometry" />
        </mxCell>
        <mxCell id="3KhVxmC615AnR605HJwy-69" value="" style="rounded=1;whiteSpace=wrap;html=1;fillColor=#fff2cc;strokeColor=#d6b656;strokeWidth=3;container=0;" vertex="1" parent="3KhVxmC615AnR605HJwy-146">
          <mxGeometry x="61.013169666285194" y="46.23881057682594" width="24.203797462027868" height="9.104164423644294" as="geometry" />
        </mxCell>
        <mxCell id="3KhVxmC615AnR605HJwy-71" value="" style="rounded=1;whiteSpace=wrap;html=1;fillColor=#dae8fc;strokeColor=#6c8ebf;container=0;" vertex="1" parent="3KhVxmC615AnR605HJwy-146">
          <mxGeometry x="11.395384869128003" y="68.82427764421118" width="80.68046441191318" height="40.962495623529875" as="geometry" />
        </mxCell>
        <mxCell id="3KhVxmC615AnR605HJwy-73" value="" style="sketch=0;pointerEvents=1;shadow=0;dashed=0;html=1;strokeColor=none;fillColor=#434445;aspect=fixed;labelPosition=center;verticalLabelPosition=bottom;verticalAlign=top;align=center;outlineConnect=0;shape=mxgraph.vvd.cpu;rounded=1;fontFamily=Helvetica;fontSize=12;fontColor=default;container=0;" vertex="1" parent="3KhVxmC615AnR605HJwy-146">
          <mxGeometry x="33.09637021871008" y="70.30916811056416" width="14.748777561192172" height="14.748777561192172" as="geometry" />
        </mxCell>
        <mxCell id="3KhVxmC615AnR605HJwy-74" value="" style="sketch=0;pointerEvents=1;shadow=0;dashed=0;html=1;strokeColor=none;fillColor=#434445;aspect=fixed;labelPosition=center;verticalLabelPosition=bottom;verticalAlign=top;align=center;outlineConnect=0;shape=mxgraph.vvd.cpu;rounded=1;fontFamily=Helvetica;fontSize=12;fontColor=default;container=0;" vertex="1" parent="3KhVxmC615AnR605HJwy-146">
          <mxGeometry x="15.652191867698974" y="70.30916811056416" width="14.748777561192172" height="14.748777561192172" as="geometry" />
        </mxCell>
        <mxCell id="3KhVxmC615AnR605HJwy-75" value="" style="sketch=0;pointerEvents=1;shadow=0;dashed=0;html=1;strokeColor=none;fillColor=#434445;aspect=fixed;labelPosition=center;verticalLabelPosition=bottom;verticalAlign=top;align=center;outlineConnect=0;shape=mxgraph.vvd.cpu;rounded=1;fontFamily=Helvetica;fontSize=12;fontColor=default;container=0;" vertex="1" parent="3KhVxmC615AnR605HJwy-146">
          <mxGeometry x="33.09637021871008" y="88.53747866303497" width="14.748777561192172" height="14.748777561192172" as="geometry" />
        </mxCell>
        <mxCell id="3KhVxmC615AnR605HJwy-76" value="" style="sketch=0;pointerEvents=1;shadow=0;dashed=0;html=1;strokeColor=none;fillColor=#434445;aspect=fixed;labelPosition=center;verticalLabelPosition=bottom;verticalAlign=top;align=center;outlineConnect=0;shape=mxgraph.vvd.cpu;rounded=1;fontFamily=Helvetica;fontSize=12;fontColor=default;container=0;" vertex="1" parent="3KhVxmC615AnR605HJwy-146">
          <mxGeometry x="15.652191867698974" y="88.53747866303497" width="14.748777561192172" height="14.748777561192172" as="geometry" />
        </mxCell>
        <mxCell id="3KhVxmC615AnR605HJwy-77" value="" style="rounded=1;whiteSpace=wrap;html=1;fillColor=#d5e8d4;strokeColor=#82b366;strokeWidth=3;container=0;" vertex="1" parent="3KhVxmC615AnR605HJwy-146">
          <mxGeometry x="19.520765495379774" y="77.25871150869362" width="24.203797462027868" height="22.785388190588495" as="geometry" />
        </mxCell>
        <mxCell id="3KhVxmC615AnR605HJwy-79" value="" style="sketch=0;pointerEvents=1;shadow=0;dashed=0;html=1;strokeColor=none;fillColor=#434445;aspect=fixed;labelPosition=center;verticalLabelPosition=bottom;verticalAlign=top;align=center;outlineConnect=0;shape=mxgraph.vvd.cpu;rounded=1;fontFamily=Helvetica;fontSize=12;fontColor=default;container=0;" vertex="1" parent="3KhVxmC615AnR605HJwy-146">
          <mxGeometry x="72.34577150848504" y="70.30916811056416" width="14.748777561192172" height="14.748777561192172" as="geometry" />
        </mxCell>
        <mxCell id="3KhVxmC615AnR605HJwy-80" value="" style="sketch=0;pointerEvents=1;shadow=0;dashed=0;html=1;strokeColor=none;fillColor=#434445;aspect=fixed;labelPosition=center;verticalLabelPosition=bottom;verticalAlign=top;align=center;outlineConnect=0;shape=mxgraph.vvd.cpu;rounded=1;fontFamily=Helvetica;fontSize=12;fontColor=default;container=0;" vertex="1" parent="3KhVxmC615AnR605HJwy-146">
          <mxGeometry x="54.90159315747393" y="70.30916811056416" width="14.748777561192172" height="14.748777561192172" as="geometry" />
        </mxCell>
        <mxCell id="3KhVxmC615AnR605HJwy-81" value="" style="sketch=0;pointerEvents=1;shadow=0;dashed=0;html=1;strokeColor=none;fillColor=#434445;aspect=fixed;labelPosition=center;verticalLabelPosition=bottom;verticalAlign=top;align=center;outlineConnect=0;shape=mxgraph.vvd.cpu;rounded=1;fontFamily=Helvetica;fontSize=12;fontColor=default;container=0;" vertex="1" parent="3KhVxmC615AnR605HJwy-146">
          <mxGeometry x="72.34577150848504" y="88.53747866303497" width="14.748777561192172" height="14.748777561192172" as="geometry" />
        </mxCell>
        <mxCell id="3KhVxmC615AnR605HJwy-82" value="" style="sketch=0;pointerEvents=1;shadow=0;dashed=0;html=1;strokeColor=none;fillColor=#434445;aspect=fixed;labelPosition=center;verticalLabelPosition=bottom;verticalAlign=top;align=center;outlineConnect=0;shape=mxgraph.vvd.cpu;rounded=1;fontFamily=Helvetica;fontSize=12;fontColor=default;container=0;" vertex="1" parent="3KhVxmC615AnR605HJwy-146">
          <mxGeometry x="54.90159315747393" y="88.53747866303497" width="14.748777561192172" height="14.748777561192172" as="geometry" />
        </mxCell>
        <mxCell id="3KhVxmC615AnR605HJwy-147" value="" style="rounded=1;whiteSpace=wrap;html=1;fillColor=#fff2cc;strokeColor=#d6b656;strokeWidth=3;container=0;" vertex="1" parent="3KhVxmC615AnR605HJwy-149">
          <mxGeometry x="202.01724381625442" y="119.69785254340432" width="10" height="10" as="geometry" />
        </mxCell>
        <mxCell id="3KhVxmC615AnR605HJwy-148" value="" style="rounded=1;whiteSpace=wrap;html=1;fillColor=#d5e8d4;strokeColor=#82b366;strokeWidth=3;container=0;" vertex="1" parent="3KhVxmC615AnR605HJwy-149">
          <mxGeometry x="259.95038869257945" y="119.69785254340432" width="10" height="10" as="geometry" />
        </mxCell>
      </root>
    </mxGraphModel>
  </diagram>
</mxfile>
